<svg width="357" height="128" viewBox="0 0 357 128" fill="none" xmlns="http://www.w3.org/2000/svg">
<path d="M154.028 57.9395C153.377 57.1402 153.052 56.4908 153.052 55.9413C153.052 55.192 153.577 54.2929 154.678 53.2438C155.304 52.6444 155.929 52.3447 156.555 52.3447C157.331 52.3447 158.281 52.9191 159.407 54.0431L159.607 54.2429C159.707 54.3678 159.858 54.5426 160.058 54.7175C160.258 54.9173 160.633 55.192 161.209 55.5167C161.784 55.8414 162.335 56.0162 162.91 56.0162C165.237 56.0162 166.413 55.0671 166.413 53.1689C166.413 52.5944 166.088 52.1199 165.462 51.7203C164.837 51.3456 164.036 51.0459 163.085 50.871C162.134 50.6962 161.109 50.4215 160.008 50.0218C158.907 49.6472 157.881 49.1726 156.93 48.6481C155.979 48.1236 155.179 47.2994 154.553 46.1505C153.928 45.0265 153.602 43.6528 153.602 42.0543C153.602 39.8563 154.428 37.9331 156.054 36.3096C157.681 34.6862 159.933 33.8619 162.76 33.8619C164.261 33.8619 165.637 34.0617 166.863 34.4364C168.089 34.836 168.965 35.2107 169.44 35.6103L170.191 36.1848L170.391 36.3346C171.167 37.0589 171.542 37.6584 171.542 38.1329C171.542 38.6574 171.242 39.3568 170.641 40.231C169.791 41.4798 168.915 42.1042 168.014 42.1042C167.489 42.1042 166.838 41.8545 166.063 41.3549C165.988 41.305 165.837 41.1801 165.637 40.9803C165.412 40.7805 165.237 40.6306 165.062 40.5057C164.887 40.3808 164.586 40.2809 164.186 40.156C163.786 40.0561 163.285 39.9812 162.735 39.9812C162.134 39.9812 161.559 40.181 161.034 40.5557C160.483 40.9553 160.233 41.4548 160.233 42.0793C160.233 42.8286 160.558 43.428 161.184 43.8276C161.834 44.2522 162.61 44.527 163.561 44.7018C164.511 44.8517 165.537 45.0765 166.663 45.4012C167.789 45.7259 168.815 46.1005 169.791 46.5501C170.741 46.9997 171.542 47.7739 172.168 48.8979C172.793 50.0218 173.118 51.3956 173.118 53.044C173.118 54.6425 172.793 56.0662 172.143 57.2901C171.492 58.5139 170.641 59.488 169.616 60.1624C168.565 60.8368 167.514 61.3363 166.413 61.661C165.312 61.9857 164.211 62.1605 163.11 62.1605C161.934 62.1605 160.833 62.0107 159.758 61.7359C158.707 61.4612 157.856 61.1115 157.18 60.6869C156.505 60.2623 155.954 59.8627 155.454 59.4381C154.954 59.0135 154.628 58.6388 154.428 58.3641L154.028 57.9395Z" fill="#340D8D" style="fill:#340D8D;fill:color(display-p3 0.2055 0.0508 0.5542);fill-opacity:1;"/>
<path d="M187.281 47.9987C191.109 51.6703 193.837 54.4427 195.438 56.291C196.264 57.2151 196.664 57.9644 196.664 58.4889C196.664 59.2132 196.138 60.0375 195.088 60.9616C194.137 61.7609 193.336 62.1605 192.686 62.1605C192.06 62.1605 191.285 61.636 190.384 60.587L182.127 51.1708V58.4889C182.127 59.0884 182.102 59.5379 182.077 59.8127C182.027 60.0874 181.927 60.4121 181.727 60.7868C181.527 61.1614 181.176 61.4112 180.726 61.561C180.25 61.7109 179.6 61.7858 178.824 61.7858C178.174 61.7858 177.623 61.7359 177.198 61.586C176.773 61.4611 176.447 61.3113 176.222 61.1364C175.997 60.9616 175.822 60.7118 175.722 60.3622C175.597 60.0125 175.547 59.7377 175.522 59.488C175.497 59.2632 175.497 58.8885 175.497 58.414V37.5834C175.497 37.009 175.522 36.5844 175.547 36.2847C175.572 36.0099 175.697 35.6602 175.897 35.2856C176.097 34.9109 176.422 34.6612 176.923 34.5113C177.398 34.3614 178.024 34.2865 178.824 34.2865C179.475 34.2865 180 34.3614 180.426 34.4863C180.851 34.6112 181.176 34.7611 181.401 34.9359C181.627 35.1107 181.802 35.3605 181.902 35.7102C182.002 36.0349 182.077 36.3346 182.102 36.5844C182.102 36.8341 182.127 37.1838 182.127 37.6584V44.8267C185.53 41.0052 188.282 37.8832 190.384 35.4105C191.26 34.3864 192.01 33.8869 192.686 33.8869C193.336 33.8869 194.137 34.2865 195.088 35.0858C196.138 36.0099 196.664 36.8341 196.664 37.5585C196.664 38.1079 196.264 38.8572 195.438 39.7564C194.737 40.5806 193.712 41.6796 192.335 43.0533C190.959 44.427 189.783 45.601 188.782 46.575L187.281 47.9987Z" fill="#340D8D" style="fill:#340D8D;fill:color(display-p3 0.2055 0.0508 0.5542);fill-opacity:1;"/>
<path d="M214.778 36.2837L224.911 57.1892C225.337 58.0384 225.537 58.6878 225.537 59.1124C225.537 60.0116 224.811 60.8358 223.36 61.5601C222.509 61.9847 221.784 62.1845 221.233 62.1845C220.833 62.1845 220.483 62.0597 220.157 61.8349C219.832 61.6101 219.607 61.3853 219.482 61.1355C219.332 60.8858 219.156 60.5111 218.906 60.0116L216.955 55.9654H206.571L204.62 60.0116C204.369 60.5111 204.169 60.8858 204.044 61.0856C203.894 61.3104 203.669 61.5352 203.369 61.7849C203.043 62.0097 202.693 62.1346 202.293 62.1346C201.717 62.1346 200.992 61.9098 200.166 61.5102C198.715 60.8108 197.989 60.0116 197.989 59.1124C197.989 58.6878 198.189 58.0384 198.615 57.1892L208.748 36.2587C209.023 35.6843 209.449 35.2347 209.999 34.86C210.574 34.5104 211.15 34.3355 211.775 34.3355C213.127 34.3355 214.127 34.9849 214.778 36.2837ZM211.75 45.2753L209.273 50.3955H214.252L211.75 45.2753Z" fill="#340D8D" style="fill:#340D8D;fill:color(display-p3 0.2055 0.0508 0.5542);fill-opacity:1;"/>
<path d="M227.613 37.6325C227.613 37.058 227.638 36.6334 227.663 36.3337C227.713 36.0589 227.813 35.7093 228.013 35.3346C228.213 34.96 228.539 34.7102 229.014 34.5603C229.49 34.4105 230.115 34.3355 230.916 34.3355C231.566 34.3355 232.092 34.4105 232.542 34.5354C232.967 34.6602 233.293 34.8101 233.518 34.9849C233.743 35.1598 233.918 35.4095 234.018 35.7592C234.143 36.0839 234.193 36.3836 234.218 36.6334C234.218 36.8832 234.243 37.2328 234.243 37.7074V58.5379C234.243 59.1374 234.218 59.587 234.193 59.8617C234.143 60.1365 234.043 60.4612 233.843 60.8358C233.643 61.2105 233.293 61.4602 232.817 61.6101C232.342 61.7599 231.691 61.8349 230.916 61.8349C230.265 61.8349 229.715 61.7849 229.289 61.6351C228.864 61.5102 228.539 61.3603 228.314 61.1855C228.088 61.0106 227.913 60.7609 227.813 60.4112C227.688 60.0615 227.638 59.7868 227.613 59.537C227.588 59.3122 227.588 58.9376 227.588 58.463V37.6325H227.613Z" fill="#340D8D" style="fill:#340D8D;fill:color(display-p3 0.2055 0.0508 0.5542);fill-opacity:1;"/>
<path d="M253.408 56.2409H263.617C264.117 56.2409 264.493 56.2659 264.718 56.2909C264.943 56.3408 265.218 56.4158 265.518 56.5656C265.819 56.7155 266.019 56.9902 266.144 57.3899C266.269 57.7895 266.344 58.339 266.344 58.9884C266.344 59.6378 266.269 60.1623 266.144 60.5619C266.019 60.9615 265.794 61.2363 265.493 61.4111C265.168 61.5859 264.893 61.6609 264.643 61.7108C264.392 61.7608 264.017 61.7608 263.567 61.7608H250.056C249.405 61.7608 248.855 61.7108 248.429 61.561C248.004 61.4361 247.679 61.2862 247.454 61.1114C247.228 60.9366 247.053 60.6868 246.953 60.3371C246.828 59.9874 246.778 59.7127 246.753 59.4629C246.728 59.2381 246.728 58.8635 246.728 58.3889V37.5584C246.728 36.9839 246.753 36.5593 246.778 36.2596C246.828 35.9848 246.928 35.6352 247.128 35.2605C247.328 34.8859 247.654 34.6361 248.129 34.4862C248.604 34.3364 249.23 34.2615 250.031 34.2615C250.681 34.2615 251.207 34.3364 251.657 34.4613C252.082 34.5862 252.408 34.736 252.633 34.9108C252.858 35.0857 253.033 35.3355 253.133 35.6851C253.258 36.0098 253.308 36.3095 253.333 36.5593C253.333 36.8091 253.358 37.1587 253.358 37.6333V56.2409H253.408Z" fill="#340D8D" style="fill:#340D8D;fill:color(display-p3 0.2055 0.0508 0.5542);fill-opacity:1;"/>
<path d="M284.66 36.2837L294.794 57.1892C295.219 58.0384 295.419 58.6878 295.419 59.1124C295.419 60.0116 294.693 60.8358 293.242 61.5601C292.392 61.9847 291.666 62.1845 291.116 62.1845C290.715 62.1845 290.365 62.0597 290.04 61.8349C289.714 61.6101 289.489 61.3853 289.364 61.1355C289.214 60.8858 289.039 60.5111 288.789 60.0116L286.837 55.9654H276.429L274.477 60.0116C274.227 60.5111 274.027 60.8858 273.901 61.0856C273.751 61.3104 273.526 61.5352 273.226 61.7849C272.901 62.0097 272.55 62.1346 272.15 62.1346C271.575 62.1346 270.849 61.9098 270.023 61.5102C268.572 60.8108 267.846 60.0116 267.846 59.1124C267.846 58.6878 268.047 58.0384 268.472 57.1892L278.605 36.2587C278.881 35.6843 279.306 35.2347 279.856 34.86C280.432 34.5104 281.007 34.3355 281.633 34.3355C283.009 34.3355 284.01 34.9849 284.66 36.2837ZM281.633 45.2753L279.156 50.3955H284.135L281.633 45.2753Z" fill="#340D8D" style="fill:#340D8D;fill:color(display-p3 0.2055 0.0508 0.5542);fill-opacity:1;"/>
<path d="M323.842 34.3611C324.618 34.3611 325.243 34.436 325.719 34.5859C326.194 34.7357 326.519 35.0105 326.719 35.3851C326.92 35.7598 327.045 36.0845 327.07 36.3842C327.095 36.6839 327.12 37.1335 327.12 37.708V58.5135C327.12 59.088 327.095 59.5126 327.045 59.8123C326.995 60.112 326.869 60.4367 326.694 60.7864C326.494 61.1611 326.169 61.4108 325.694 61.5607C325.218 61.7105 324.568 61.7855 323.792 61.7855C323.141 61.7855 322.591 61.7355 322.166 61.5857C321.74 61.4608 321.415 61.3109 321.19 61.1361C320.965 60.9612 320.789 60.7115 320.689 60.3618C320.564 60.0371 320.514 59.7374 320.489 59.4876C320.464 59.2628 320.464 58.8882 320.464 58.4136V45.8504C319.839 46.6246 318.913 47.8485 317.712 49.5469C316.511 51.2453 315.61 52.4442 315.035 53.1685C314.96 53.2934 314.86 53.4433 314.735 53.5931C314.609 53.768 314.309 53.9928 313.809 54.2675C313.333 54.5672 312.783 54.6921 312.207 54.6921C311.657 54.6921 311.157 54.5672 310.681 54.2925C310.206 54.0177 309.881 53.768 309.68 53.5182L309.38 53.0936C308.88 52.4692 307.879 51.1454 306.428 49.0973C304.952 47.0742 304.151 45.9752 304.026 45.8254V58.4386C304.026 59.0131 304.001 59.4377 303.976 59.7374C303.951 60.0371 303.826 60.3618 303.625 60.7115C303.425 61.0861 303.075 61.3359 302.625 61.4858C302.149 61.6356 301.499 61.7106 300.698 61.7106C299.922 61.7106 299.297 61.6356 298.847 61.4858C298.371 61.3359 298.046 61.0861 297.846 60.7115C297.646 60.3618 297.52 60.0121 297.495 59.7124C297.47 59.4127 297.445 58.9631 297.445 58.3637V37.5581C297.445 36.9836 297.47 36.559 297.495 36.2593C297.545 35.9846 297.646 35.6599 297.846 35.2852C298.046 34.9355 298.371 34.6608 298.847 34.5109C299.322 34.3611 299.947 34.2861 300.748 34.2861C301.424 34.2861 301.999 34.3611 302.5 34.5359C303 34.7108 303.3 34.8606 303.45 35.0354L303.675 35.2602L312.182 46.4248C316.436 40.8051 319.288 37.1085 320.714 35.3102C321.24 34.7108 322.241 34.3611 323.842 34.3611Z" fill="#340D8D" style="fill:#340D8D;fill:color(display-p3 0.2055 0.0508 0.5542);fill-opacity:1;"/>
<path d="M346.035 36.2837L356.168 57.1892C356.594 58.0384 356.794 58.6878 356.794 59.1124C356.794 60.0116 356.068 60.8358 354.617 61.5601C353.766 61.9847 353.041 62.1845 352.49 62.1845C352.09 62.1845 351.74 62.0597 351.414 61.8349C351.089 61.6101 350.864 61.3853 350.739 61.1355C350.589 60.8858 350.414 60.5111 350.163 60.0116L348.212 55.9654H337.803L335.852 60.0116C335.601 60.5111 335.401 60.8858 335.276 61.0856C335.126 61.3104 334.901 61.5352 334.601 61.7849C334.275 62.0097 333.925 62.1346 333.525 62.1346C332.949 62.1346 332.224 61.9098 331.398 61.5102C329.947 60.8108 329.221 60.0116 329.221 59.1124C329.221 58.6878 329.421 58.0384 329.847 57.1892L339.98 36.2587C340.255 35.6843 340.681 35.2347 341.231 34.86C341.806 34.5104 342.382 34.3355 343.007 34.3355C344.384 34.3355 345.384 34.9849 346.035 36.2837ZM342.982 45.2753L340.505 50.3955H345.484L342.982 45.2753Z" fill="#340D8D" style="fill:#340D8D;fill:color(display-p3 0.2055 0.0508 0.5542);fill-opacity:1;"/>
<path d="M161.559 79.4433C161.985 79.793 162.335 80.1926 162.585 80.6921C162.835 81.1917 162.96 81.7162 162.96 82.2907C162.96 83.015 162.785 83.6394 162.41 84.2139C162.035 84.7883 161.509 85.2379 160.809 85.5626C160.108 85.8873 159.282 86.0621 158.332 86.0621H153.052V71.9503H158.131C159.082 71.9503 159.908 72.1002 160.583 72.4249C161.259 72.7496 161.759 73.1742 162.11 73.6987C162.46 74.2482 162.61 74.8476 162.61 75.522C162.61 76.3712 162.385 77.0455 161.934 77.595C161.484 78.1445 160.884 78.5441 160.133 78.7689C160.683 78.8938 161.134 79.0936 161.559 79.4433ZM154.929 78.0696H158.031C158.907 78.0696 159.558 77.8698 160.033 77.4701C160.508 77.0705 160.734 76.4961 160.734 75.7967C160.734 75.0724 160.508 74.5229 160.033 74.1233C159.558 73.7236 158.882 73.5238 157.981 73.5238H154.929V78.0696ZM160.333 83.9141C160.859 83.4895 161.109 82.8901 161.109 82.1158C161.109 81.3415 160.834 80.7171 160.308 80.2675C159.758 79.818 159.032 79.5932 158.131 79.5932H154.929V84.5635H158.206C159.107 84.5635 159.833 84.3387 160.333 83.9141Z" fill="#340D8D" style="fill:#340D8D;fill:color(display-p3 0.2055 0.0508 0.5542);fill-opacity:1;"/>
<path d="M175.095 74.9728L168.389 91.2826H166.488L168.689 85.9375L164.211 74.9728H166.262L169.74 83.9644L173.193 74.9728H175.095Z" fill="#340D8D" style="fill:#340D8D;fill:color(display-p3 0.2055 0.0508 0.5542);fill-opacity:1;"/>
<path d="M186.255 82.8653H192.21V86.0873H181.801V83.0651L187.681 74.9977H181.801V71.8007H192.21V74.8228L186.255 82.8653Z" fill="#340D8D" style="fill:#340D8D;fill:color(display-p3 0.2055 0.0508 0.5542);fill-opacity:1;"/>
<path d="M205.994 74.7223V86.0867H201.991V84.4632C201.641 84.9877 201.19 85.3873 200.59 85.712C199.989 86.0367 199.314 86.1866 198.538 86.1866C197.212 86.1866 196.161 85.762 195.411 84.8878C194.635 84.0136 194.26 82.8397 194.26 81.3411V74.7473H198.213V80.8416C198.213 81.491 198.388 81.9905 198.738 82.3652C199.089 82.7398 199.539 82.9147 200.115 82.9147C200.69 82.9147 201.165 82.7398 201.491 82.3652C201.841 81.9905 201.991 81.491 201.991 80.8416V74.7473H205.994V74.7223Z" fill="#340D8D" style="fill:#340D8D;fill:color(display-p3 0.2055 0.0508 0.5542);fill-opacity:1;"/>
<path d="M213.876 75.1962C214.502 74.8216 215.202 74.6218 215.928 74.6218V78.8428H214.802C213.926 78.8428 213.301 79.0177 212.875 79.3423C212.45 79.692 212.25 80.2665 212.25 81.1157V86.0861H208.272V74.7217H212.25V76.7198C212.7 76.0704 213.226 75.5709 213.876 75.1962Z" fill="#340D8D" style="fill:#340D8D;fill:color(display-p3 0.2055 0.0508 0.5542);fill-opacity:1;"/>
<path d="M217.33 77.3195C217.756 76.4453 218.331 75.771 219.082 75.2964C219.807 74.8219 220.633 74.5971 221.534 74.5971C222.309 74.5971 222.985 74.7469 223.56 75.0716C224.136 75.3713 224.561 75.7959 224.886 76.3205V74.7469H228.865V86.1113H224.886V84.5378C224.586 85.0623 224.136 85.4869 223.56 85.7866C222.985 86.0863 222.309 86.2612 221.534 86.2612C220.633 86.2612 219.807 86.0364 219.082 85.5618C218.356 85.0873 217.756 84.4129 217.33 83.5387C216.905 82.6645 216.68 81.6155 216.68 80.4416C216.68 79.2677 216.905 78.1937 217.33 77.3195ZM224.286 78.6683C223.886 78.2437 223.385 78.0438 222.81 78.0438C222.209 78.0438 221.709 78.2437 221.334 78.6683C220.933 79.0679 220.733 79.6673 220.733 80.3917C220.733 81.116 220.933 81.6904 221.334 82.115C221.734 82.5396 222.209 82.7644 222.81 82.7644C223.385 82.7644 223.886 82.5646 224.286 82.14C224.686 81.7154 224.886 81.141 224.886 80.3917C224.886 79.6673 224.686 79.0929 224.286 78.6683Z" fill="#340D8D" style="fill:#340D8D;fill:color(display-p3 0.2055 0.0508 0.5542);fill-opacity:1;"/>
<path fill-rule="evenodd" clip-rule="evenodd" d="M101.403 90.0278V96.5232C101.403 106.829 96.3949 115.961 88.7033 121.624C83.5159 125.45 77.1275 127.695 70.177 127.695C63.0731 127.695 56.5058 125.323 51.2418 121.318C43.7546 115.629 38.925 106.625 38.925 96.5232V90.5451C39.0365 90.4986 39.1477 90.4507 39.2585 90.4016C42.9638 88.6414 45.7747 85.4018 47.3335 81.0398C48.2278 78.54 48.4834 75.9891 48.0745 73.4892C47.4357 69.4843 45.3403 65.9641 41.7117 62.699C40.8383 61.9151 39.9165 61.1649 38.925 60.435V31.4758C38.9505 14.2573 52.9283 0.304001 70.177 0.304001C78.8141 0.304001 86.6079 3.79871 92.2552 9.43615C97.9281 15.0736 101.403 22.8793 101.403 31.4758V61.1235C100.773 61.6193 100.17 62.1262 99.5889 62.6479C95.9603 65.913 93.8649 69.4333 93.226 73.4381C92.8172 75.938 93.0727 78.4889 93.9671 80.9887C95.435 85.0965 98.0134 88.209 101.403 90.0278ZM101.403 63.1087V88.2824C98.7486 86.6368 96.6563 83.9931 95.3981 80.4786C94.6059 78.2338 94.3759 75.938 94.7337 73.6932C95.3214 70.0455 97.2379 66.8059 100.611 63.7958C100.87 63.5639 101.134 63.335 101.403 63.1087ZM45.8514 80.4786C44.451 84.4025 42.0173 87.2359 38.925 88.8117V62.3604C39.5203 62.8278 40.0896 63.3052 40.6384 63.7959C44.0115 66.8059 45.928 70.0455 46.5157 73.6933C46.8735 75.9381 46.6691 78.2339 45.8514 80.4786Z" fill="url(#paint0_linear_1300_1581)" style=""/>
<path d="M88.9084 57.5213C88.9084 55.8377 88.1929 54.3072 87.0686 53.2103C88.1929 52.1134 88.9084 50.6084 88.9084 48.8993C88.9084 45.6087 86.2253 42.9558 82.9289 42.9558C81.9323 42.9558 81.0124 43.2108 80.1691 43.619C78.3292 40.4559 74.9051 38.3132 70.9954 38.3132C66.6513 38.3132 62.9205 40.9406 61.2595 44.6648C60.1862 43.5935 58.7041 42.9303 57.0687 42.9303C53.7723 42.9303 51.0892 45.5832 51.0892 48.8738C51.0892 50.5574 51.8047 52.0879 52.929 53.1848C51.8047 54.2817 51.0892 55.7867 51.0892 57.4958C51.0892 59.2814 51.8813 60.8629 53.1335 61.9598C51.8813 63.0567 51.0892 64.6382 51.0892 66.4239C51.0892 68.2095 51.8813 69.791 53.1335 70.8879C51.8813 71.9848 51.0892 73.5663 51.0892 75.3519C51.0892 75.403 51.0892 75.454 51.0892 75.5305C51.0892 75.5815 51.0892 75.6325 51.0892 75.7091C51.0892 77.3926 51.8047 78.9232 52.929 80.0201C51.8047 81.1169 51.0892 82.6219 51.0892 84.331C51.0892 85.2238 51.2936 86.0656 51.6513 86.8309C52.0091 87.5962 52.5202 88.2594 53.1335 88.7951C51.8813 89.892 51.1147 91.4735 51.1147 93.2591C51.1147 94.1519 51.3192 94.9937 51.6769 95.759C52.0347 96.5242 52.5457 97.1875 53.159 97.7232C51.9069 98.82 51.1147 100.402 51.1147 102.187C51.1147 103.973 51.9069 105.554 53.159 106.651C51.9069 107.748 51.1147 109.33 51.1147 111.115C51.1147 112.901 51.9069 114.482 53.159 115.579C51.9069 116.676 51.1147 118.258 51.1147 120.043C51.1147 120.477 51.1658 120.911 51.2425 121.319C56.5065 125.324 63.0482 127.696 70.1777 127.696C77.1027 127.696 83.5166 125.451 88.704 121.625C88.8318 121.115 88.9084 120.605 88.9084 120.043C88.9084 118.258 88.1163 116.676 86.8897 115.579C88.1418 114.482 88.9084 112.901 88.9084 111.115C88.9084 109.33 88.1163 107.748 86.8897 106.651C88.1418 105.554 88.9084 103.973 88.9084 102.187C88.9084 100.402 88.1163 98.82 86.8897 97.7232C88.1418 96.6263 88.9084 95.0447 88.9084 93.2591C88.9084 91.4735 88.1163 89.892 86.8897 88.7951C88.1418 87.6982 88.9084 86.1167 88.9084 84.331C88.9084 82.6475 88.1929 81.1169 87.0686 80.0201C88.1929 78.9232 88.9084 77.4182 88.9084 75.7091C88.9084 75.658 88.9084 75.607 88.9084 75.5305C88.9084 75.4795 88.9084 75.4285 88.9084 75.3519C88.9084 73.5663 88.1163 71.9848 86.8897 70.8879C88.1418 69.791 88.9084 68.2095 88.9084 66.4239C88.9084 64.6382 88.1163 63.0567 86.8897 61.9598C88.1418 60.8884 88.9084 59.2814 88.9084 57.5213Z" fill="white" style="fill:white;fill:white;fill-opacity:1;"/>
<path d="M59.8284 38.2105C52.9801 38.2105 47.435 32.6751 47.435 25.8387C54.2833 25.8387 59.8284 31.3741 59.8284 38.2105Z" fill="white" style="fill:white;fill:white;fill-opacity:1;"/>
<path d="M81.5491 38.2105C81.5491 31.3741 87.0943 25.8387 93.9426 25.8387C93.9426 32.6751 88.3975 38.2105 81.5491 38.2105Z" fill="white" style="fill:white;fill:white;fill-opacity:1;"/>
<path d="M54.2829 53.8472C64.6576 53.8472 75.0068 53.8472 85.3816 53.8472C85.3816 54.6634 85.3816 55.4797 85.3816 56.3215C84.9471 56.3215 84.5894 56.3215 84.1805 56.3215C84.1805 56.7552 84.1805 57.1633 84.1805 57.597C83.7717 57.597 83.4139 57.597 83.0306 57.597C83.0306 57.9796 83.0306 58.3112 83.0306 58.7193C82.5962 58.7193 82.1874 58.7193 81.7529 58.7193C81.7529 59.102 81.7529 59.4591 81.7529 59.8162C79.2487 59.8162 76.77 59.8162 74.2658 59.8162C74.2658 59.4336 74.2658 59.0765 74.2658 58.6938C73.8058 58.6938 73.3714 58.6938 72.9114 58.6938C72.9114 58.3112 72.9114 57.9541 72.9114 57.5714C72.477 57.5714 72.0937 57.5714 71.6593 57.5714C71.6593 56.7296 71.6593 55.9389 71.6593 55.1481C70.7905 55.1481 69.9472 55.1481 69.0528 55.1481C69.0528 55.9644 69.0528 56.7552 69.0528 57.597C68.644 57.597 68.3118 57.597 67.9029 57.597C67.9029 57.9796 67.9029 58.3367 67.9029 58.7193C67.5196 58.7193 67.1874 58.7193 66.8297 58.7193C66.8297 59.102 66.8297 59.4591 66.8297 59.8162C63.8399 59.8162 60.9013 59.8162 57.937 59.8162C57.937 59.4336 57.937 59.102 57.937 58.6938C57.5026 58.6938 57.0682 58.6938 56.6338 58.6938C56.6338 58.2857 56.6338 57.9541 56.6338 57.5714C56.225 57.5714 55.8417 57.5714 55.4328 57.5714C55.4328 57.1378 55.4328 56.7296 55.4328 56.2705C55.0239 56.2705 54.6917 56.2705 54.3084 56.2705C54.2829 55.4542 54.2829 54.6634 54.2829 53.8472ZM60.1091 56.296C60.1091 56.6531 60.1091 57.0102 60.1091 57.3674C60.518 57.3674 60.8757 57.3674 61.2335 57.3674C61.2335 57.0102 61.2335 56.6531 61.2335 56.296C60.8501 56.3215 60.4668 56.3215 60.1091 56.296C60.0835 55.9389 60.0835 55.5562 60.0835 55.1736C59.7002 55.1736 59.3425 55.1736 58.9847 55.1736C58.9847 55.5562 58.9847 55.9134 58.9847 56.296C59.3936 56.3215 59.7513 56.3215 60.1091 56.296ZM75.3646 56.296C75.7479 56.296 76.1567 56.296 76.54 56.296C76.54 56.6531 76.54 57.0102 76.54 57.3674C76.9233 57.3674 77.2811 57.3674 77.6388 57.3674C77.6388 57.0102 77.6388 56.6531 77.6388 56.296C77.2555 56.296 76.8978 56.296 76.54 56.296C76.54 55.9134 76.54 55.5307 76.54 55.1481C76.1312 55.1481 75.7734 55.1481 75.3901 55.1481C75.3901 55.5818 75.3901 55.9389 75.3646 56.296C75.0068 56.296 74.6235 56.296 74.2658 56.296C74.2658 56.6786 74.2658 57.0102 74.2658 57.3674C74.6491 57.3674 74.9813 57.3674 75.3646 57.3674C75.3646 57.0102 75.3646 56.6531 75.3646 56.296ZM56.7105 55.1736C56.7105 55.5562 56.7105 55.9134 56.7105 56.2705C57.0682 56.2705 57.426 56.2705 57.7837 56.2705C57.7837 55.8879 57.7837 55.5307 57.7837 55.1736C57.4004 55.1736 57.0682 55.1736 56.7105 55.1736ZM73.1159 55.1736C73.1159 55.5562 73.1159 55.9134 73.1159 56.2705C73.4736 56.2705 73.8313 56.2705 74.1891 56.2705C74.1891 55.8879 74.1891 55.5307 74.1891 55.1736C73.8313 55.1736 73.4992 55.1736 73.1159 55.1736ZM60.0835 58.5408C60.0835 58.1837 60.0835 57.8265 60.0835 57.4694C59.7002 57.4694 59.368 57.4694 59.0103 57.4694C59.0103 57.852 59.0103 58.1837 59.0103 58.5408C59.3936 58.5408 59.7258 58.5408 60.0835 58.5408ZM75.4157 57.4694C75.4157 57.8265 75.4157 58.1837 75.4157 58.5408C75.799 58.5408 76.1567 58.5408 76.5145 58.5408C76.5145 58.1837 76.5145 57.8265 76.5145 57.4694C76.1312 57.4694 75.7734 57.4694 75.4157 57.4694ZM58.9336 57.3929C58.9336 57.0102 58.9336 56.6786 58.9336 56.3215C58.5503 56.3215 58.2181 56.3215 57.8604 56.3215C57.8604 56.6786 57.8604 57.0358 57.8604 57.3929C58.2437 57.3929 58.5759 57.3929 58.9336 57.3929ZM62.3834 58.5408C62.3834 58.1581 62.3834 57.8265 62.3834 57.4694C62.0001 57.4694 61.6679 57.4694 61.3101 57.4694C61.3101 57.8265 61.3101 58.1837 61.3101 58.5408C61.6679 58.5408 62.0001 58.5408 62.3834 58.5408ZM77.7155 57.4439C77.7155 57.8265 77.7155 58.1581 77.7155 58.5153C78.0988 58.5153 78.4565 58.5153 78.7887 58.5153C78.7887 58.1326 78.7887 57.801 78.7887 57.4439C78.431 57.4439 78.0988 57.4439 77.7155 57.4439Z" fill="#3D10A2" style="fill:#3D10A2;fill:color(display-p3 0.2392 0.0627 0.6353);fill-opacity:1;"/>
<path d="M65.2707 75.7599C62.7154 75.7599 60.6456 73.6937 60.6456 71.1428C60.6456 69.4082 61.6166 67.8522 63.0987 67.0614C62.8687 66.5767 62.7409 66.0666 62.7409 65.5309C62.7409 63.6177 64.2997 62.0362 66.2418 62.0362C67.3406 62.0362 68.3627 62.5464 69.0271 63.4392C69.2315 63.6943 69.1804 64.0769 68.8994 64.2554C68.6438 64.4595 68.2605 64.4085 68.0816 64.1279C67.6472 63.5412 66.9573 63.2096 66.2162 63.2096C64.9386 63.2096 63.8909 64.2554 63.8909 65.5309C63.8909 66.0666 64.0697 66.5512 64.3764 66.9594L64.8874 67.6226L64.0953 67.8777C62.6898 68.3369 61.7699 69.6633 61.7699 71.1173C61.7699 73.005 63.3031 74.561 65.2196 74.561C66.7273 74.561 68.0561 73.5917 68.5161 72.1377C68.6183 71.8061 68.6694 71.4744 68.6694 71.1173C68.6694 70.7857 68.9249 70.5306 69.2571 70.5306C69.5893 70.5306 69.8448 70.7857 69.8448 71.1173C69.8448 71.5765 69.7682 72.0356 69.6404 72.4948C69.0782 74.459 67.315 75.7599 65.2707 75.7599Z" fill="#424245" style="fill:#424245;fill:color(display-p3 0.2588 0.2588 0.2706);fill-opacity:1;"/>
<path d="M73.473 75.7593C71.4287 75.7593 69.6655 74.4583 69.0522 72.5196C68.9245 72.086 68.8478 71.6268 68.8478 71.1422C68.8478 70.8106 69.1034 70.5555 69.4356 70.5555C69.7677 70.5555 70.0233 70.8106 70.0233 71.1422C70.0233 71.4993 70.0744 71.8309 70.1766 72.1625C70.6366 73.6165 71.9398 74.5859 73.473 74.5859C75.364 74.5859 76.9227 73.0553 76.9227 71.1422C76.9227 69.6627 75.9773 68.3617 74.5974 67.9025L73.8052 67.6475L74.3163 66.9842C74.6485 66.5761 74.8018 66.0914 74.8018 65.5557C74.8018 64.2803 73.7541 63.2344 72.4764 63.2344C71.7354 63.2344 71.071 63.566 70.611 64.1528C70.4066 64.4078 70.0488 64.4589 69.7933 64.2803C69.5378 64.0762 69.4867 63.7191 69.6655 63.464C70.3299 62.5712 71.3521 62.061 72.4509 62.061C74.3674 62.061 75.9517 63.6171 75.9517 65.5557C75.9517 66.0914 75.8239 66.6016 75.594 67.0863C77.1016 67.877 78.0471 69.4331 78.0471 71.1677C78.0727 73.693 76.0028 75.7593 73.473 75.7593Z" fill="#424245" style="fill:#424245;fill:color(display-p3 0.2588 0.2588 0.2706);fill-opacity:1;"/>
<path d="M67.6468 66.8826H66.3691C65.5514 66.8826 64.887 66.2194 64.887 65.4031C64.887 64.5868 65.5514 63.9236 66.3691 63.9236C67.1868 63.9236 67.8512 64.5868 67.8512 65.4031V66.6785C67.8512 66.8061 67.749 66.8826 67.6468 66.8826Z" fill="#424245" style="fill:#424245;fill:color(display-p3 0.2588 0.2588 0.2706);fill-opacity:1;"/>
<path d="M71.2255 66.8826H72.5032C73.3209 66.8826 73.9853 66.2194 73.9853 65.4031C73.9853 64.5868 73.3209 63.9236 72.5032 63.9236C71.6855 63.9236 71.0211 64.5868 71.0211 65.4031V66.6785C71.0211 66.8061 71.1233 66.8826 71.2255 66.8826Z" fill="#424245" style="fill:#424245;fill:color(display-p3 0.2588 0.2588 0.2706);fill-opacity:1;"/>
<path d="M69.4362 81.4223C66.0632 81.4223 63.3034 78.6673 63.3034 75.3001C63.3034 75.1726 63.3034 75.0195 63.3289 74.8665C63.3545 74.5349 63.6356 74.3053 63.9678 74.3308C64.3 74.3563 64.5299 74.6369 64.5044 74.9685C64.5044 75.0706 64.4788 75.1726 64.4788 75.3001C64.4788 78.0296 66.702 80.2489 69.4362 80.2489C72.1704 80.2489 74.3936 78.0296 74.3936 75.3001C74.3936 75.1726 74.3936 75.0451 74.3681 74.943C74.3425 74.6114 74.5725 74.3308 74.9047 74.3053C75.2369 74.2798 75.518 74.5094 75.5435 74.841C75.5691 74.994 75.5691 75.1471 75.5691 75.3257C75.5691 78.6673 72.8093 81.4223 69.4362 81.4223Z" fill="#424245" style="fill:#424245;fill:color(display-p3 0.2588 0.2588 0.2706);fill-opacity:1;"/>
<path d="M70.9881 9.05354C70.9626 9.05354 70.937 9.05354 70.9115 9.05354C70.3493 11.2728 69.8127 13.4921 69.2505 15.6858H72.6236C72.0869 13.4921 71.5503 11.2728 70.9881 9.05354Z" fill="white" style="fill:white;fill:white;fill-opacity:1;"/>
<path d="M72.9048 16.8083C71.6271 16.8083 70.375 16.8083 69.1229 16.8083C68.944 16.8083 68.9185 16.9103 68.8929 17.0379C68.5863 18.3133 68.2541 19.5633 67.9474 20.8387C67.9219 20.9152 67.9219 20.9662 67.9219 20.9918H73.9525C73.6203 19.6398 73.2625 18.2368 72.9048 16.8083Z" fill="white" style="fill:white;fill:white;fill-opacity:1;"/>
<path d="M74.2593 22.1397C74.2338 22.1142 74.2082 22.1142 74.2082 22.1142C72.0617 22.1142 69.9152 22.1142 67.7943 22.1142C67.7431 22.1142 67.6409 22.1907 67.6154 22.2672C67.2832 23.6192 66.951 24.9712 66.6188 26.2721H75.307C74.9492 24.9202 74.6171 23.5172 74.2593 22.1397Z" fill="white" style="fill:white;fill:white;fill-opacity:1;"/>
<path d="M76.4819 31.118C76.4819 30.9649 76.4307 30.8119 76.3796 30.6588C76.1241 29.5874 75.843 28.5161 75.5619 27.4447C75.5108 27.4447 75.4853 27.4192 75.4597 27.4192C72.4699 27.4192 69.4802 27.4192 66.4904 27.4192C66.3115 27.4192 66.286 27.4957 66.2349 27.6488C65.9793 28.7456 65.6983 29.8425 65.4172 30.9394C65.3916 31.0669 65.3916 31.169 65.3916 31.271C65.3916 31.6792 65.5449 32.1128 65.8771 32.4189L68.4836 35.0208C69.8379 36.3728 72.0355 36.3728 73.3899 35.0208L75.9963 32.4189C76.3541 32.0363 76.5074 31.5771 76.4819 31.118Z" fill="white" style="fill:white;fill:white;fill-opacity:1;"/>
<path d="M1.17736 39.3072C3.14498 43.3121 6.72248 45.2252 10.3255 47.0108C16.4584 50.0464 22.6934 52.8524 28.8263 55.8369C32.966 57.8521 36.9779 60.1479 40.4276 63.2344C43.5707 66.0404 45.8705 69.331 46.5604 73.591C46.9438 76.0398 46.6882 78.4377 45.8449 80.759C42.8041 89.2534 34.9847 92.9522 26.0921 90.0442C22.7445 88.9473 19.6781 87.3403 17.2505 84.7128C16.0495 83.4374 15.1296 81.9834 14.7718 80.0702C15.8195 80.2233 16.7139 80.4019 17.6338 80.5039C19.7803 80.7335 21.9524 80.912 24.0989 81.0906C24.8144 81.1416 25.3255 80.9375 25.4021 80.1468C25.4532 79.305 24.891 79.1264 24.2267 79.0499C21.3135 78.7183 18.3749 78.5397 15.4873 78.004C12.3954 77.4683 9.58447 76.1164 7.33576 73.8716C5.21482 71.7544 4.37155 69.1525 4.47376 66.0404C4.88262 66.219 5.16371 66.321 5.47035 66.4741C10.2233 68.8974 15.2829 70.3769 20.5214 71.3462C21.288 71.4738 22.0802 71.5503 22.2335 70.5044C22.3612 69.5351 21.5691 69.4076 20.8791 69.28C15.4873 68.3362 10.3 66.7291 5.47035 64.1017C1.84175 62.1376 0.359643 56.8572 2.45503 53.388C3.96269 54.2043 5.41924 55.1992 7.00356 55.8114C10.7344 57.2909 14.5163 58.5663 18.2982 59.9438C18.4516 59.9948 18.6049 59.9948 18.7582 60.0458C19.4737 60.2499 20.0359 60.0713 20.2403 59.3316C20.4703 58.5663 19.9592 58.2602 19.2693 58.0561C16.8672 57.3419 14.4141 56.7297 12.1143 55.7859C9.4056 54.6635 6.82469 53.235 4.19267 51.934C1.99507 50.8372 0.947375 48.9495 0.487411 46.6537C-0.0747672 44.1794 0.231875 41.756 1.17736 39.3072Z" fill="#07E4BD" style="fill:#07E4BD;fill:color(display-p3 0.0275 0.8941 0.7412);fill-opacity:1;"/>
<path d="M140.076 39.3072C138.109 43.3121 134.531 45.2253 130.928 47.0109C124.795 50.0464 118.56 52.8524 112.428 55.8369C108.288 57.8521 104.276 60.1479 100.826 63.2345C97.6832 66.0405 95.3834 69.3311 94.6934 73.5911C94.3101 76.0399 94.5656 78.4377 95.4089 80.759C98.4498 89.2535 106.269 92.9522 115.162 90.0442C118.509 88.9474 121.576 87.3403 124.003 84.7129C125.204 83.4375 126.124 81.9835 126.482 80.0703C125.434 80.2234 124.54 80.4019 123.62 80.504C121.474 80.7335 119.301 80.9121 117.155 81.0907C116.439 81.1417 115.928 80.9376 115.852 80.1468C115.801 79.305 116.363 79.1265 117.027 79.05C119.94 78.7183 122.879 78.5398 125.767 78.0041C128.858 77.4684 131.669 76.1164 133.918 73.8717C136.039 71.7544 136.882 69.1525 136.78 66.0405C136.371 66.219 136.09 66.3211 135.783 66.4741C131.031 68.8974 125.971 70.377 120.732 71.3463C119.966 71.4738 119.174 71.5504 119.02 70.5045C118.893 69.5352 119.685 69.4076 120.375 69.2801C125.767 68.3363 130.954 66.7292 135.783 64.1018C139.412 62.1376 140.894 56.8573 138.799 53.3881C137.291 54.2044 135.835 55.1992 134.25 55.8114C130.519 57.2909 126.738 58.5664 122.956 59.9439C122.802 59.9949 122.649 59.9949 122.496 60.0459C121.78 60.25 121.218 60.0714 121.014 59.3316C120.784 58.5664 121.295 58.2603 121.985 58.0562C124.387 57.342 126.84 56.7297 129.14 55.7859C131.848 54.6635 134.429 53.235 137.061 51.9341C139.259 50.8372 140.306 48.9496 140.766 46.6538C141.329 44.1794 141.048 41.7561 140.076 39.3072Z" fill="#07E4BD" style="fill:#07E4BD;fill:color(display-p3 0.0275 0.8941 0.7412);fill-opacity:1;"/>
<defs>
<linearGradient id="paint0_linear_1300_1581" x1="70.1642" y1="0.304001" x2="70.1642" y2="127.695" gradientUnits="userSpaceOnUse">
<stop stop-color="#7132FF" style="stop-color:#7132FF;stop-color:color(display-p3 0.4431 0.1961 1.0000);stop-opacity:1;"/>
<stop offset="1" stop-color="#27027B" style="stop-color:#27027B;stop-color:color(display-p3 0.1527 0.0060 0.4833);stop-opacity:1;"/>
</linearGradient>
</defs>
</svg>
